<svg display="none" xmlns="http://www.w3.org/2000/svg">
    <symbol id="html5-logo" viewBox="0 0 100 100">
        <g>
            <path d="M21.0241 91.9682L14.5767 19.6524L85.4232 19.6524L78.9689 91.9569L49.9565 100L21.0241 91.9682Z" fill="#E44D26"/>
            <path d="M50 93.8521L73.4434 87.3527L78.959 25.5652H50L50 93.8521Z" fill="#F16529"/>
            <path d="M49.9998 52.3861H38.2635L37.453 43.3038H49.9998V34.4345H49.9692H27.76L27.9723 36.814L30.1522 61.2552H49.9998V52.3861Z" fill="#EBEBEB"/>
            <path d="M50 75.4205L49.9611 75.4309L40.0834 72.7637L39.4519 65.6901H34.6521H30.5486L31.7912 79.616L49.9591 84.6596L50 84.6483V75.4205Z" fill="#EBEBEB"/>
            <path d="M21.1682 0L25.6754 0V4.45312L29.7985 4.45313V0L34.3059 0V13.4852H29.7987V8.96953H25.6756V13.4852H21.1684V0L21.1682 0Z" fill="#120D0E"/>
            <path d="M40.2331 4.47187H36.2651V0L48.7104 0V4.47187H44.7407V13.4852H40.2333V4.47187H40.2331Z" fill="#120D0E"/>
            <path d="M50.6858 0L55.3856 0L58.2766 4.73828L61.1647 0L65.8663 0V13.4852H61.3776V6.80117L58.2766 11.5959H58.1991L55.096 6.80117V13.4852H50.6858V0Z" fill="#120D0E"/>
            <path d="M68.1094 0L72.618 0V9.02773H78.9564V13.4852H68.1094V0Z" fill="#120D0E"/>
            <path d="M49.9695 52.3861V61.2552H60.891L59.8615 72.758L49.9695 75.4279V84.6552L68.1519 79.616L68.2853 78.1175L70.3695 54.7677L70.5859 52.3861H68.1959H49.9695Z" fill="white"/>
            <path d="M49.9695 34.4345V39.9431V43.2822V43.3038H71.3644H71.3929L71.5708 41.3103L71.9749 36.814L72.1871 34.4345H49.9695Z" fill="white"/>
        </g>
    </symbol>

    <symbol id="css3-logo" viewBox="0 0 72 100">
        <g>
            <path d="M64.6942 92.1912L35.6934 100L6.69225 92.1912L0 19.6891L71.3873 19.6891L64.6942 92.1912Z" fill="#2062AF"/>
            <path d="M35.6934 25.562L35.6934 93.772L35.7589 93.7899L59.228 87.4703L64.6451 25.562L35.6934 25.562V25.562Z" fill="#3C9CD7"/>
            <path d="M19.2343 9.03729V4.72198L25.5304 4.72198V0L14.5123 0L14.5123 13.3462L25.5304 13.3462V9.03729L19.2343 9.03729ZM36.8563 4.72198L41.258 4.72198V0L30.2389 0V4.72198C31.7131 6.19618 32.482 6.90178 34.6141 9.03388C33.3677 9.03388 30.2389 9.03835 30.2389 9.03814V13.3462L41.258 13.3462V9.03729L36.8563 4.72198ZM52.4739 4.72198H56.8754V0L45.8559 0V4.72198C47.3301 6.19618 48.0994 6.90178 50.2315 9.03388C48.9855 9.03388 45.8559 9.03835 45.8559 9.03814V13.3462L56.8756 13.3462V9.03729L52.4739 4.72198V4.72198Z" fill="black"/>
            <path d="M35.6674 43.6903L14.9106 52.335L15.599 60.8938L35.6674 52.3133L57.015 43.1861L57.9001 34.4307L35.6674 43.6903Z" fill="white"/>
            <path d="M14.9105 52.3348L15.5989 60.8936L35.6673 52.3131V43.6902L14.9105 52.3348V52.3348Z" fill="url(#paint0_linear_1_780)"/>
            <path d="M57.9001 34.4307L35.6675 43.6901V52.313L57.015 43.1859L57.9001 34.4307Z" fill="url(#paint1_linear_1_780)"/>
            <path d="M14.9424 52.3348L15.6309 60.8937L46.4235 60.9918L45.7347 72.4035L35.6022 75.2561L25.8618 72.7968L25.2716 65.7136H16.2211L17.4017 79.3879L35.7006 84.7984L53.9002 79.4861L56.2614 52.3348L14.9424 52.3348V52.3348Z" fill="url(#paint2_linear_1_780)"/>
            <path opacity="0.05" d="M35.6675 52.3348H14.9106L15.599 60.8937L35.6675 60.9577V52.3348ZM35.6675 75.2289L35.5691 75.2563L25.8301 72.797L25.2399 65.7138H16.1896L17.37 79.3881L35.6675 84.7986V75.2289Z" fill="black"/>
            <path d="M13.0411 34.4307L57.9002 34.4307L57.0151 43.186L14.1232 43.186L13.0411 34.4307V34.4307Z" fill="url(#paint3_linear_1_780)"/>
            <path opacity="0.05" d="M35.6674 34.4307H13.0411L14.1232 43.186H35.6674V34.4307V34.4307Z" fill="black"/>
            <defs>
                <linearGradient id="paint0_linear_1_780" x1="25.2889" y1="60.8938" x2="25.2889" y2="43.6904" gradientUnits="userSpaceOnUse">
                    <stop offset="0.387" stop-color="#D1D3D4" stop-opacity="0"/>
                    <stop offset="1" stop-color="#D1D3D4"/>
                </linearGradient>
                <linearGradient id="paint1_linear_1_780" x1="46.7836" y1="52.3132" x2="46.7836" y2="34.4309" gradientUnits="userSpaceOnUse">
                    <stop offset="0.387" stop-color="#D1D3D4" stop-opacity="0"/>
                    <stop offset="1" stop-color="#D1D3D4"/>
                </linearGradient>
                <linearGradient id="paint2_linear_1_780" x1="14.9424" y1="68.5668" x2="56.2611" y2="68.5668" gradientUnits="userSpaceOnUse">
                    <stop stop-color="#E8E7E5"/>
                    <stop offset="1" stop-color="white"/>
                </linearGradient>
                <linearGradient id="paint3_linear_1_780" x1="13.0411" y1="38.8084" x2="57.9" y2="38.8084" gradientUnits="userSpaceOnUse">
                    <stop stop-color="#E8E7E5"/>
                    <stop offset="1" stop-color="white"/>
                </linearGradient>
            </defs>
<!--            <path fill="#0277BD" d="M41,5H7l3,34l14,4l14-4L41,5L41,5z"/>-->
<!--            <path fill="#039BE5" d="M24 8L24 39.9 35.2 36.7 37.7 8z"/>-->
<!--            <path fill="#FFF" d="M33.1 13L24 13 24 17 28.9 17 28.6 21 24 21 24 25 28.4 25 28.1 29.5 24 30.9 24 35.1 31.9 32.5 32.6 21 32.6 21z"/>-->
<!--            <path fill="#EEE" d="M24,13v4h-8.9l-0.3-4H24z M19.4,21l0.2,4H24v-4H19.4z M19.8,27h-4l0.3,5.5l7.9,2.6v-4.2l-4.1-1.4L19.8,27z"/>-->
        </g>
    </symbol>

    <symbol id="sass-logo" viewBox="0 0 100 75">
        <g>
            <path d="M86.0546 43.0859C82.5585 43.1057 79.5311 43.9453 76.9921 45.1955C76.0546 43.34 75.1171 41.7187 74.961 40.508C74.7852 39.1017 74.5704 38.2422 74.7852 36.5627C74.9999 34.8828 75.9765 32.5 75.9765 32.3047C75.9567 32.1289 75.7614 31.2695 73.7499 31.25C71.7384 31.2305 69.9999 31.6406 69.8046 32.168C69.6093 32.6953 69.2186 33.9062 68.9647 35.1562C68.6132 36.9922 64.9413 43.4961 62.8515 46.9141C62.1679 45.5859 61.5819 44.4141 61.4645 43.4764C61.289 42.0703 61.0739 41.2107 61.2889 39.5312C61.5038 37.8514 62.4804 35.4687 62.4804 35.2734C62.4608 35.0976 62.2655 34.2383 60.254 34.2187C58.2421 34.1992 56.504 34.6094 56.3087 35.1367C56.1134 35.6641 55.8985 36.9141 55.4688 38.125C55.0585 39.3359 50.1757 50.1953 48.9061 53.0273C48.2616 54.4726 47.6954 55.625 47.285 56.4062C46.8749 57.1875 47.2655 56.4648 47.2265 56.543C46.8749 57.207 46.6796 57.5781 46.6796 57.5781V57.5978C46.4061 58.0861 46.1132 58.5547 45.9763 58.5547C45.8786 58.5547 45.6833 57.2461 46.0153 55.4494C46.738 51.6797 48.4958 45.801 48.4765 45.5861C48.4765 45.4885 48.8083 44.4531 47.3434 43.926C45.9177 43.3986 45.41 44.2775 45.2927 44.2775C45.1755 44.2775 45.0778 44.59 45.0778 44.59C45.0778 44.59 46.6598 37.9691 42.0505 37.9691C39.1598 37.9691 35.1755 41.1137 33.2028 43.9848C31.9528 44.6683 29.2966 46.1135 26.4841 47.6566C25.4098 48.2426 24.2966 48.8676 23.2419 49.434L23.0272 49.1992C17.4413 43.2422 7.10926 39.0234 7.53895 31.0156C7.6952 28.1055 8.71082 20.4297 27.3829 11.1328C42.6759 3.51563 54.922 5.60547 57.0507 10.2539C60.078 16.8945 50.5077 29.2383 34.6095 31.0156C28.5548 31.6992 25.371 29.3555 24.5704 28.4766C23.7306 27.5586 23.6134 27.5195 23.3009 27.6953C22.7931 27.9687 23.1056 28.7891 23.3009 29.2773C23.7696 30.5078 25.7227 32.6953 29.0431 33.7891C31.953 34.7461 39.0626 35.2734 47.6563 31.9531C57.2852 28.2227 64.8048 17.8711 62.5977 9.21875C60.3517 0.41016 45.7423 -2.48046 31.9337 2.42188C23.7108 5.35156 14.8046 9.92188 8.39832 15.918C0.781136 23.0273 -0.429802 29.2383 0.0780107 31.8164C1.85555 41.0156 14.5311 47.0117 19.6093 51.4453C19.3554 51.5818 19.121 51.7185 18.9061 51.8359C16.3671 53.0857 6.6991 58.1445 4.27723 63.4959C1.54285 69.5506 4.70692 73.9062 6.81629 74.4922C13.3397 76.3086 20.0194 73.0469 23.6327 67.6758C27.2263 62.3047 26.7968 55.332 25.1366 52.1484L25.0778 52.0312L27.07 50.8594C28.3593 50.0976 29.6288 49.3945 30.7419 48.7889C30.1171 50.4881 29.6677 52.4998 29.4335 55.4295C29.16 58.8672 30.5663 63.3201 32.4218 65.0779C33.2421 65.8394 34.2186 65.8592 34.8241 65.8592C36.9725 65.8592 37.9491 64.0816 39.0233 61.9529C40.3515 59.3553 41.5233 56.3474 41.5233 56.3474C41.5233 56.3474 40.0585 64.492 44.0624 64.492C45.5272 64.492 46.9921 62.5974 47.6561 61.6209V61.6404C47.6561 61.6404 47.6952 61.5818 47.7733 61.4451C47.8553 61.3239 47.9334 61.2002 48.0077 61.0742V61.0351C48.5936 60.0195 49.9022 57.6953 51.8554 53.8476C54.3747 48.8867 56.7968 42.6758 56.7968 42.6758C56.7968 42.6758 57.0311 44.1992 57.7538 46.6992C58.1833 48.1838 59.1208 49.8047 59.8434 51.3867C59.2575 52.207 58.9059 52.676 58.9059 52.676L58.9255 52.6955C58.4569 53.3205 57.9294 53.9848 57.3827 54.6486C55.3905 57.0314 53.0077 59.7465 52.6952 60.5277C52.3241 61.4455 52.4022 62.1291 53.1249 62.6762C53.6522 63.0668 54.5897 63.1447 55.5858 63.0668C57.3827 62.9494 58.6327 62.5004 59.2577 62.2267C60.2343 61.8752 61.3475 61.3478 62.4218 60.5666C64.3749 59.1215 65.5663 57.0707 65.4491 54.3363C65.3905 52.8324 64.9022 51.348 64.2968 49.9418C64.4725 49.6879 64.6485 49.4338 64.8241 49.1605C67.91 44.6486 70.2929 39.6879 70.2929 39.6879C70.2929 39.6879 70.5272 41.2113 71.2499 43.7113C71.6208 44.9808 72.3632 46.3678 73.0272 47.7349C70.1366 50.0982 68.3202 52.8326 67.6952 54.6295C66.5429 57.9498 67.4413 59.4537 69.1405 59.8053C69.902 59.9615 70.996 59.61 71.8161 59.2584C72.8317 58.9264 74.0622 58.3597 75.1952 57.5201C77.1483 56.0748 79.0233 54.0631 78.9257 51.3482C78.8671 50.0982 78.535 48.8678 78.0858 47.6959C80.5468 46.6803 83.7302 46.0943 87.7733 46.5826C96.4647 47.5982 98.1835 53.0279 97.8517 55.2935C97.5196 57.5594 95.7032 58.8092 95.0975 59.1998C94.4921 59.5709 94.2968 59.7078 94.3554 59.981C94.4335 60.3914 94.7069 60.3717 95.2343 60.2937C95.9569 60.1764 99.8046 58.4383 99.9608 54.2588C100.195 48.8869 95.0975 43.0275 86.0546 43.0859ZM19.0233 65.6836C16.1522 68.8281 12.1093 70.0195 10.3905 69.0039C8.53504 67.9297 9.2575 63.3008 12.7929 59.9609C14.9413 57.9297 17.7343 56.0547 19.5702 54.9023C19.9804 54.6484 20.6054 54.2775 21.3475 53.8281C21.4647 53.7502 21.5429 53.7109 21.5429 53.7109C21.6796 53.6328 21.8358 53.5351 21.9921 53.4375C23.3007 58.2031 22.0507 62.3828 19.0233 65.6836ZM40.0194 51.4062C39.0233 53.8476 36.914 60.1172 35.6444 59.7656C34.5505 59.4726 33.8866 54.7266 35.4294 50.0391C36.2106 47.6756 37.8708 44.8633 38.8474 43.7693C40.4296 42.0115 42.1481 41.4256 42.578 42.1482C43.0858 43.0859 40.6444 49.8828 40.0194 51.4062ZM57.3436 59.6875C56.914 59.9025 56.5233 60.0586 56.3475 59.9416C56.2108 59.8635 56.5231 59.5705 56.5231 59.5705C56.5231 59.5705 58.6911 57.2463 59.5505 56.1721C60.0388 55.5473 60.6247 54.8246 61.2497 54.0041V54.2385C61.2499 57.0508 58.5546 58.9258 57.3436 59.6875ZM70.7028 56.6406C70.3903 56.4062 70.4296 55.6836 71.4841 53.418C71.8944 52.5195 72.8317 51.0156 74.4528 49.5898C74.6481 50.1758 74.7655 50.742 74.7458 51.2695C74.7265 54.7851 72.2264 56.0937 70.7028 56.6406Z" fill="#CF649A"/>
        </g>
    </symbol>

    <symbol id="git-logo" viewBox="0 0 120 51">
        <g>
            <path d="M71.7111 17.3249C69.0875 17.3249 67.1338 18.6042 67.1338 21.6834C67.1338 24.0032 68.4215 25.614 71.5696 25.614C74.2382 25.614 76.0508 24.0521 76.0508 21.587C76.0508 18.7937 74.429 17.3249 71.7111 17.3249ZM66.4658 39.0665C65.8447 39.823 65.226 40.6275 65.226 41.5758C65.226 43.4692 67.6569 44.039 70.9963 44.039C73.7619 44.039 77.5298 43.8463 77.5298 41.2923C77.5298 39.7741 75.7171 39.6805 73.4268 39.5381L66.4658 39.0665ZM80.5813 17.4678C81.4382 18.5572 82.3457 20.0735 82.3457 22.2518C82.3457 27.5088 78.1968 30.587 72.1893 30.587C70.6616 30.587 69.2788 30.398 68.4215 30.1615L66.8469 32.6708L71.5199 32.9548C79.7709 33.4771 84.6332 33.7145 84.6332 40.0111C84.6332 45.4589 79.8182 48.5357 71.5199 48.5357C62.8888 48.5357 59.5981 46.357 59.5981 42.6158C59.5981 40.4845 60.5521 39.35 62.2213 37.7844C60.6472 37.1237 60.1231 35.9403 60.1231 34.6605C60.1231 33.6177 60.6472 32.6712 61.5069 31.7704C62.3647 30.8719 63.3182 29.9711 64.4628 28.9292C62.1266 27.7923 60.3613 25.3295 60.3613 21.824C60.3613 16.3784 63.9861 12.6382 71.2808 12.6382C73.3321 12.6382 74.5724 12.8254 75.6693 13.1117H84.9693V17.1359L80.5813 17.4678ZM93.359 8.86123C90.6403 8.86123 89.0667 7.29699 89.0667 4.59634C89.0667 1.89942 90.6398 0.429688 93.359 0.429688C96.1246 0.429688 97.6987 1.89942 97.6987 4.59634C97.6987 7.29699 96.1251 8.86123 93.359 8.86123ZM87.2062 37.3235V33.5837L89.639 33.2532C90.307 33.1577 90.4017 33.0162 90.4017 32.3044V18.3798C90.4017 17.8603 90.2592 17.527 89.7806 17.3864L87.2062 16.4855L87.7303 12.6503H97.6026V32.3044C97.6026 33.0632 97.6486 33.1577 98.3662 33.2536L100.798 33.5842V37.3235H87.2062ZM119.656 35.4873C117.605 36.4813 114.601 37.3812 111.882 37.3812C106.207 37.3812 104.062 35.1102 104.062 29.7555V17.3482C104.062 17.0642 104.062 16.8747 103.679 16.8747H100.342V12.6582C104.539 12.1834 106.207 10.0996 106.732 4.93713H111.263V11.6643C111.263 11.9948 111.263 12.1378 111.645 12.1378H118.368V16.8738H111.263V28.1927C111.263 30.9869 111.931 32.0753 114.505 32.0753C115.842 32.0753 117.223 31.7448 118.367 31.3184L119.656 35.4869" fill="#2F2707"/>
            <path d="M48.9979 23.0586L27.1935 1.40456C26.8949 1.1079 26.5403 0.872567 26.1501 0.712009C25.7599 0.55145 25.3417 0.468811 24.9193 0.468811C24.497 0.468811 24.0788 0.55145 23.6886 0.712009C23.2983 0.872567 22.9438 1.1079 22.6452 1.40456L18.1175 5.90177L23.8611 11.6057C24.5363 11.3776 25.2622 11.3419 25.9567 11.5026C26.6512 11.6633 27.2865 12.014 27.7907 12.5149C28.2975 13.0189 28.6514 13.6544 28.8119 14.3487C28.9724 15.0431 28.9329 15.7682 28.6982 16.4413L34.2327 21.939C35.5719 21.4809 37.1174 21.7775 38.1866 22.8412C38.5421 23.1941 38.8241 23.613 39.0165 24.0741C39.2089 24.5352 39.3079 25.0295 39.3079 25.5286C39.3079 26.0278 39.2089 26.522 39.0165 26.9831C38.8241 27.4442 38.5421 27.8632 38.1866 28.216C37.5612 28.8377 36.7381 29.225 35.8576 29.3119C34.977 29.3987 34.0934 29.1798 33.357 28.6924C32.6207 28.205 32.0771 27.4792 31.819 26.6386C31.5608 25.798 31.6039 24.8945 31.941 24.0819L26.7791 18.9553L26.7786 32.4469C27.1528 32.6307 27.4946 32.8734 27.7907 33.1657C28.1461 33.5187 28.4281 33.9377 28.6205 34.3989C28.8128 34.8601 28.9119 35.3544 28.9119 35.8536C28.9119 36.3528 28.8128 36.8471 28.6205 37.3083C28.4281 37.7694 28.1461 38.1885 27.7907 38.5414C26.2954 40.0265 23.8719 40.0265 22.379 38.5414C21.9329 38.0988 21.6039 37.5535 21.4213 36.9541C21.2386 36.3547 21.2078 35.7198 21.3318 35.1058C21.4557 34.4918 21.7305 33.9177 22.1317 33.4346C22.5329 32.9514 23.0481 32.5743 23.6315 32.3366V18.7193C23.1622 18.5289 22.7362 18.2468 22.379 17.8897C21.2465 16.7663 20.9741 15.1159 21.5544 13.7346L15.8929 8.1108L0.94255 22.9581C0.643803 23.2548 0.406823 23.607 0.245142 23.9947C0.0834607 24.3823 0.000244141 24.7978 0.000244141 25.2174C0.000244141 25.637 0.0834607 26.0525 0.245142 26.4401C0.406823 26.8278 0.643803 27.18 0.94255 27.4767L22.7469 49.1313C23.3501 49.7302 24.1681 50.0666 25.0211 50.0666C25.874 50.0666 26.692 49.7302 27.2952 49.1313L48.9979 27.5777C49.601 26.9783 49.9398 26.1656 49.9398 25.3182C49.9398 24.4708 49.601 23.658 48.9979 23.0586Z" fill="#DE4C36"/>
        </g>
    </symbol>

    <symbol id="javascript-logo" viewBox="0 0 78 78">
        <g>
            <path d="M0 0H78V78H0V0Z" fill="#F7DF1E"/>
            <path d="M20.5091 65.1824L26.4779 61.57C27.6296 63.6118 28.6772 65.3393 31.1899 65.3393C33.5985 65.3393 35.1173 64.3972 35.1173 60.7325V35.8096H42.4472V60.8361C42.4472 68.428 37.9969 71.8837 31.504 71.8837C25.6403 71.8837 22.2367 68.8469 20.5088 65.1818L20.5091 65.1824ZM46.4286 64.3969L52.3968 60.9415C53.968 63.5072 56.0101 65.392 59.6224 65.392C62.6599 65.392 64.5965 63.8735 64.5965 61.7791C64.5965 59.266 62.6069 58.3757 59.2559 56.9102L57.4238 56.1241C52.1354 53.8733 48.6275 51.0458 48.6275 45.077C48.6275 39.5792 52.816 35.3904 59.361 35.3904C64.0209 35.3904 67.3719 37.0138 69.7801 41.2547L64.0727 44.9201C62.8159 42.6688 61.4551 41.7788 59.3607 41.7788C57.2139 41.7788 55.8525 43.1401 55.8525 44.9201C55.8525 47.119 57.2139 48.0096 60.3552 49.371L62.1876 50.1561C68.4185 52.8267 71.9263 55.5491 71.9263 61.6746C71.9263 68.2723 66.743 71.8846 59.7794 71.8846C52.9729 71.8846 48.5748 68.6385 46.4283 64.3972" fill="black"/>
        </g>
    </symbol>

    <symbol id="github-logo" viewBox="0 0 100 99">
        <g>
            <path d="M50 0C22.3745 0 0 22.3729 0 49.9964C0 73.4926 16.1234 92.9934 37.8766 98.4909C37.6255 97.8654 37.5021 96.9888 37.5021 96.1166V87.615H31.2511C27.8766 87.615 24.7489 86.1173 23.3745 83.3643C21.7489 80.3645 21.4979 75.7393 17.3745 72.8629C16.1234 71.863 17.1234 70.863 18.4979 70.9864C21.1234 71.7353 23.2468 73.4884 25.2468 76.1095C27.2468 78.7348 28.1234 79.3603 31.8723 79.3603C33.6213 79.3603 36.3702 79.2369 38.8723 78.8582C40.2468 75.3563 42.6213 72.2332 45.4979 70.7354C28.7489 68.7355 20.7489 60.4851 20.7489 49.2348C20.7489 44.3585 22.8723 39.7333 26.3745 35.7336C25.2511 31.8573 23.7489 23.8579 26.8766 20.7347C34.3787 20.7347 38.8766 25.6109 40 26.8577C43.7489 25.6067 47.8766 24.8578 52.1234 24.8578C56.4979 24.8578 60.4979 25.6067 64.2468 26.8577C65.3702 25.6067 69.8723 20.7347 77.3702 20.7347C80.3702 23.7345 78.9957 31.8573 77.7447 35.7336C81.2468 39.6099 83.2468 44.3585 83.2468 49.2348C83.2468 60.4851 75.3702 68.7355 58.7489 70.4843C63.3745 72.8586 66.6255 79.6071 66.6255 84.6067V95.9932C66.6255 96.3676 66.5021 96.742 66.5021 97.1165C86 90.368 100 71.8715 100 49.9964C100 22.3729 77.6255 0 50 0Z" fill="black"/>
        </g>
    </symbol>

    <symbol id="star" viewBox="0 0 21 21">
        <g>
            <path d="M9.47371 1.21285C9.77356 0.292575 11.0755 0.292576 11.3753 1.21285L13.1264 6.58725C13.2605 6.99888 13.6443 7.27746 14.0772 7.27746H19.738C20.7074 7.27746 21.1097 8.51849 20.3247 9.08725L15.7498 12.4019C15.3984 12.6565 15.2513 13.1088 15.3857 13.5215L17.1343 18.8881C17.4343 19.8089 16.381 20.5759 15.5968 20.0077L11.0112 16.6853C10.6612 16.4317 10.1878 16.4317 9.8378 16.6853L5.25225 20.0077C4.46799 20.5759 3.4147 19.8089 3.71472 18.8881L5.4633 13.5215C5.59775 13.1088 5.45067 12.6565 5.09921 12.4019L0.524337 9.08725C-0.26067 8.51849 0.141661 7.27746 1.11106 7.27746H6.77181C7.20474 7.27746 7.5885 6.99888 7.72262 6.58725L9.47371 1.21285Z"/>
        </g>
    </symbol>

    <symbol id="arrow-down" viewBox="0 0 32 21">
        <g>
            <path d="M3.76 0.906616L16 13.1199L28.24 0.906616L32 4.66662L16 20.6666L0 4.66662L3.76 0.906616Z" fill="#120D0E"/>
        </g>
    </symbol>
</svg>
